<?xml version="1.0" standalone="no"?>
<!DOCTYPE svg PUBLIC "-//W3C//DTD SVG 20010904//EN"
 "http://www.w3.org/TR/2001/REC-SVG-20010904/DTD/svg10.dtd">
<svg version="1.0" xmlns="http://www.w3.org/2000/svg"
 width="640.000000pt" height="640.000000pt" viewBox="0 0 640.000000 640.000000"
 preserveAspectRatio="xMidYMid meet">
<metadata>
Created by potrace 1.11, written by Peter Selinger 2001-2013
</metadata>
<g transform="translate(0.000000,640.000000) scale(0.100000,-0.100000)"
fill="#000000" stroke="none">
<path d="M3090 5740 c-30 -11 -56 -25 -58 -30 -2 -6 -9 -10 -16 -10 -18 0 -82
-76 -105 -124 -16 -36 -33 -110 -32 -141 0 -5 0 -32 0 -60 0 -27 0 -59 1 -70
0 -11 0 -36 -1 -55 -1 -19 -1 -42 0 -50 0 -8 0 -40 0 -70 -1 -30 -1 -62 0 -70
1 -8 1 -31 0 -50 -2 -53 -2 -54 1 -65 1 -5 2 -41 1 -79 -1 -67 -1 -68 -26 -64
-14 3 -27 2 -30 -2 -2 -4 -25 -4 -49 0 -25 4 -51 3 -58 -1 -6 -4 -16 -5 -21
-2 -12 7 -215 6 -227 -2 -6 -3 -10 -2 -10 2 0 5 -29 6 -65 3 -36 -3 -65 -3
-65 0 0 3 -72 5 -160 5 -88 0 -160 -3 -160 -6 0 -3 -20 -3 -45 1 -25 4 -45 4
-45 0 0 -4 -20 -4 -45 0 -25 4 -45 4 -45 1 0 -3 -22 -6 -50 -6 -27 0 -50 4
-50 8 0 5 -5 5 -11 1 -6 -3 -27 -8 -47 -10 -175 -17 -375 -117 -495 -247 -119
-129 -198 -303 -212 -468 -1 -15 -5 -32 -9 -38 -4 -6 -4 -11 1 -11 4 0 8 -22
8 -50 0 -27 -3 -50 -6 -50 -3 0 -3 -20 1 -45 4 -25 4 -45 0 -45 -4 0 -4 -20 0
-45 4 -25 4 -45 1 -45 -3 0 -5 -71 -3 -157 2 -87 2 -180 1 -208 0 -27 -1 -56
0 -62 2 -20 3 -201 2 -273 0 -8 0 -33 0 -55 0 -22 0 -49 -1 -60 -4 -100 -4
-135 0 -135 3 0 4 -28 2 -62 -1 -35 -2 -106 -1 -158 0 -52 0 -106 -1 -120 -4
-88 -4 -140 1 -140 3 0 3 -20 -1 -45 -4 -25 -4 -48 0 -50 4 -3 4 -22 0 -44 -4
-22 -4 -45 0 -51 4 -7 4 -27 0 -46 -4 -18 -5 -35 -3 -38 3 -3 4 -31 3 -63 -2
-73 -2 -69 -1 -128 1 -27 0 -78 -1 -113 -2 -34 0 -62 3 -62 3 0 3 -20 -1 -45
-4 -25 -4 -48 0 -50 4 -3 4 -22 0 -44 -4 -22 -4 -45 1 -52 4 -7 5 -17 3 -21
-10 -16 0 -310 11 -327 3 -6 9 -24 11 -39 3 -15 24 -65 46 -111 33 -66 60
-102 120 -163 44 -43 85 -78 93 -78 8 0 15 -4 15 -9 0 -12 114 -62 190 -82 61
-17 173 -18 1740 -18 1039 0 1692 4 1720 10 25 5 56 12 70 15 37 8 167 72 198
97 33 27 120 116 145 148 36 47 87 161 103 234 10 41 16 128 15 200 -1 28 0
78 1 113 2 34 0 62 -3 62 -3 0 -3 20 1 45 4 25 4 48 0 50 -4 3 -4 22 0 44 4
22 4 45 0 51 -4 7 -4 27 0 46 4 18 5 35 3 38 -3 3 -4 31 -3 63 2 73 2 69 1
128 -1 28 0 78 1 113 2 34 0 62 -3 62 -3 0 -3 20 1 45 4 25 4 48 0 50 -4 3 -4
22 0 44 4 22 4 45 0 51 -4 7 -4 27 0 46 4 18 5 35 3 38 -3 3 -4 31 -3 63 2 73
2 69 1 128 -1 28 0 78 1 113 2 34 0 62 -3 62 -3 0 -3 20 1 45 4 25 4 48 0 50
-4 3 -4 22 0 44 4 22 4 45 0 51 -4 7 -4 27 0 46 4 18 5 35 3 38 -3 3 -4 31 -3
63 2 73 2 69 1 128 -1 28 0 78 1 113 2 34 0 62 -3 62 -3 0 -3 20 1 45 4 25 4
48 0 50 -4 3 -4 22 0 44 4 22 4 45 0 51 -4 7 -4 26 -1 44 4 17 5 44 1 60 -3
16 -3 71 0 122 3 52 3 94 0 94 -3 0 -5 30 -4 68 1 77 -16 171 -45 255 -18 52
-58 134 -71 147 -3 3 -17 23 -31 45 -32 48 -108 128 -165 172 -44 34 -184 111
-212 117 -9 1 -24 6 -32 9 -32 12 -119 28 -171 32 -69 5 -141 7 -154 5 -24 -3
-198 -1 -202 3 -2 3 -19 1 -37 -3 -19 -4 -39 -4 -46 0 -6 4 -29 4 -51 0 -22
-4 -41 -4 -44 0 -2 4 -25 4 -50 0 -25 -4 -45 -4 -45 -1 0 5 -52 5 -140 1 -24
-2 -177 -1 -269 0 -25 1 -48 3 -53 6 -4 3 -8 2 -8 -3 0 -4 -20 -7 -45 -5 l-44
4 2 69 c1 38 -1 69 -4 69 -3 0 -3 23 1 50 4 28 3 53 0 55 -4 2 -4 21 -1 42 4
21 4 57 0 81 -3 23 -3 42 0 42 6 0 5 127 -2 245 -6 87 -35 154 -94 212 -88 86
-218 114 -333 73z m-684 -2179 c106 -50 190 -147 218 -254 18 -64 14 -192 -7
-238 -8 -19 -18 -41 -21 -49 -22 -55 -116 -149 -181 -179 -62 -29 -75 -32
-160 -36 -121 -5 -209 30 -302 119 -24 22 -43 46 -43 53 0 7 -3 13 -8 13 -4 0
-19 28 -32 63 -20 50 -25 79 -24 152 0 85 11 130 45 185 5 8 12 22 16 30 11
24 86 101 108 111 11 5 27 13 35 18 64 38 114 49 212 46 62 -2 90 -9 144 -34z
m1906 8 c294 -125 332 -526 66 -701 -140 -93 -334 -85 -462 17 -41 33 -106
108 -110 128 -2 7 -11 30 -21 52 -30 64 -26 213 6 288 47 108 146 197 254 230
75 22 196 16 267 -14z m-2227 -1649 c36 3 65 3 65 0 0 -4 166 -4 180 1 3 1 8
1 11 1 8 -1 101 -2 119 -1 8 0 34 -1 57 -2 l42 -1 1 -54 c0 -30 1 -62 0 -71 0
-21 1 -93 2 -102 0 -3 0 -25 -1 -47 l-1 -42 -61 -1 c-33 0 -64 -3 -70 -6 -5
-4 -9 -3 -9 2 0 4 -20 8 -45 8 -25 0 -45 -4 -45 -8 0 -5 -4 -6 -9 -3 -5 3 -35
6 -67 6 -94 0 -97 -1 -139 -1 -22 0 -47 0 -55 0 -8 0 -43 1 -77 1 -59 0 -63 1
-62 22 0 13 0 40 0 61 0 20 0 44 0 52 0 8 0 32 0 53 -1 20 0 57 2 82 l2 45 45
5 c25 3 46 3 48 0 1 -3 31 -3 67 0z m912 -3 c27 1 50 3 53 4 3 1 9 1 14 0 7
-2 81 -1 126 0 8 0 40 0 70 0 30 0 63 -1 73 0 9 0 33 0 52 0 19 0 42 0 50 0 8
0 31 -1 50 -2 l35 -1 0 -61 c0 -34 0 -71 0 -82 1 -11 0 -36 0 -56 -1 -19 0
-39 1 -45 1 -5 1 -24 0 -41 l-1 -33 -59 1 c-33 1 -64 -2 -70 -5 -5 -4 -12 -2
-15 2 -3 5 -26 6 -51 2 -25 -4 -47 -4 -50 -1 -2 4 -36 4 -75 1 -39 -3 -73 -3
-75 1 -2 3 -27 3 -55 -1 -27 -4 -50 -4 -50 -1 0 3 -31 5 -69 4 l-69 -2 -4 44
c-2 25 -1 45 3 45 3 0 3 23 -1 50 -4 28 -4 50 -1 50 3 0 5 29 3 64 l-4 65 34
3 c18 2 34 1 35 -2 2 -3 24 -4 50 -3z m1008 3 c36 3 65 3 65 0 0 -4 166 -4
180 1 3 1 8 1 11 1 8 -1 101 -2 119 -1 8 0 34 -1 57 -2 l42 -1 1 -54 c0 -30 1
-62 0 -71 0 -21 1 -93 2 -102 0 -3 0 -25 -1 -47 l-1 -42 -61 -1 c-33 0 -64 -3
-70 -6 -5 -4 -9 -3 -9 2 0 4 -20 8 -45 8 -25 0 -45 -4 -45 -8 0 -5 -4 -6 -9
-3 -5 3 -35 6 -67 6 -94 0 -97 -1 -139 -1 -22 0 -47 0 -55 0 -8 0 -43 1 -77 1
-59 0 -63 1 -62 22 0 13 0 40 0 61 0 20 0 44 0 52 0 8 0 32 0 53 -1 20 0 57 2
82 l2 45 45 5 c25 3 46 3 48 0 1 -3 31 -3 67 0z"/>
<path d="M277 3518 c-7 -4 -21 -8 -32 -8 -35 0 -118 -51 -162 -99 -27 -29 -50
-68 -63 -107 -20 -60 -21 -77 -18 -765 l3 -704 24 -49 c32 -63 95 -126 156
-155 39 -19 68 -24 132 -25 46 -1 83 -3 83 -6 0 -3 28 -4 62 -2 71 3 153 3
171 -1 7 -1 10 5 8 13 -2 8 -3 20 -3 25 1 20 2 80 1 95 0 8 0 31 0 50 1 19 1
42 0 50 0 13 0 126 0 173 0 9 0 34 0 55 0 20 0 48 1 62 4 110 4 220 -1 220 -3
0 -3 19 0 43 4 23 4 55 1 71 -3 16 -3 66 0 112 3 46 3 84 0 84 -3 0 -3 29 0
65 3 36 2 65 -1 65 -4 0 -5 8 -3 18 7 26 10 172 4 172 -3 0 -3 29 0 65 3 36 2
65 -3 65 -4 0 -6 4 -2 9 3 5 5 49 5 98 0 142 1 215 2 222 0 3 0 24 -1 47 l-1
41 -47 2 c-27 2 -52 3 -58 2 -97 -5 -135 -5 -135 -1 0 8 -111 6 -123 -2z"/>
<path d="M5756 3522 c-2 -4 -1 -14 3 -21 5 -7 5 -27 1 -45 -4 -17 -4 -40 0
-51 4 -11 4 -33 0 -50 -4 -17 -4 -39 0 -50 4 -11 6 -23 3 -27 -2 -4 -4 -38 -3
-75 1 -38 1 -76 1 -85 0 -10 0 -35 0 -55 0 -21 0 -49 -1 -63 -5 -123 -4 -220
3 -220 5 0 5 -4 2 -10 -3 -5 -5 -33 -5 -62 1 -78 1 -82 1 -155 0 -38 0 -79 -1
-93 -4 -97 -4 -140 1 -140 3 0 3 -20 -1 -45 -4 -25 -3 -48 2 -51 4 -3 6 -10 2
-15 -3 -5 -5 -34 -4 -64 1 -52 1 -66 -1 -97 0 -7 0 -35 0 -63 0 -27 0 -57 0
-65 0 -8 0 -37 0 -65 0 -27 1 -58 0 -67 0 -10 0 -34 0 -53 0 -19 0 -41 0 -47
0 -7 1 -30 2 -51 l2 -37 56 0 c31 0 82 -1 114 -2 31 -2 57 0 57 3 0 3 20 3 45
-1 24 -4 50 -3 57 1 6 4 16 5 20 3 5 -3 36 4 71 15 76 26 143 85 183 161 l29
55 0 725 0 725 -24 49 c-32 63 -95 126 -156 155 -39 19 -68 24 -132 25 -46 1
-83 3 -83 6 0 3 -28 4 -62 2 -88 -4 -159 -2 -169 3 -4 3 -10 2 -13 -3z"/>
</g>
</svg>
